<?xml version="1.0" encoding="UTF-8" standalone="no"?>
<svg
   width="2.7620869in"
   height="2.7620869in"
   version="1.1"
   viewBox="0 0 70.157012 70.157012"
   xml:space="preserve"
   id="svg2"
   sodipodi:docname="logo.svg"
   inkscape:version="1.4 (86a8ad7, 2024-10-11)"
   xmlns:inkscape="http://www.inkscape.org/namespaces/inkscape"
   xmlns:sodipodi="http://sodipodi.sourceforge.net/DTD/sodipodi-0.dtd"
   xmlns="http://www.w3.org/2000/svg"
   xmlns:svg="http://www.w3.org/2000/svg"><defs
     id="defs2" /><sodipodi:namedview
     id="namedview2"
     pagecolor="#ffffff"
     bordercolor="#000000"
     borderopacity="0.25"
     inkscape:showpageshadow="2"
     inkscape:pageopacity="0.0"
     inkscape:pagecheckerboard="0"
     inkscape:deskcolor="#d1d1d1"
     inkscape:document-units="in"
     inkscape:zoom="1.4783508"
     inkscape:cx="137.99161"
     inkscape:cy="123.44837"
     inkscape:window-width="1920"
     inkscape:window-height="1111"
     inkscape:window-x="-9"
     inkscape:window-y="-9"
     inkscape:window-maximized="1"
     inkscape:current-layer="svg2" /><circle
     style="fill:#ffffff;fill-opacity:1;stroke:none;stroke-width:5.75537;stroke-linecap:round;stroke-linejoin:round;stroke-dasharray:none;stroke-opacity:1"
     id="path12"
     cx="35.078506"
     cy="35.078506"
     r="35.078506" /><g
     id="g12"
     transform="translate(11.164204,8.1543064)"><path
       id="path2"
       style="fill:#d6a700;fill-opacity:1;stroke:none;stroke-width:7.62;stroke-linecap:round;stroke-dasharray:none;stroke-opacity:1"
       d="m 25.827884,15.454873 -1.886708,13.386264 h 1.066602 c 1.4436,-5.7939 3.965413,-8.796506 7.564913,-9.008236 l -4.576465,33.004707 h -2.62723 l -0.173116,1.010791 h 12.790952 l 0.115238,-1.010791 h -2.771924 l 2.511992,-17.799949 2.064473,-15.204758 c 3.4263,0 5.139739,2.627307 5.139739,7.882207 l -0.05788,1.068152 h 1.010275 l 1.829862,-13.328387 z" /><path
       id="path10"
       style="fill:#153666;fill-opacity:1;stroke:none;stroke-width:7.62;stroke-linecap:round;stroke-dasharray:none;stroke-opacity:1"
       d="M 5.2560105,0 5.1397385,1.0107911 H 7.6801523 L 2.6561689,36.61069 H 0.1157552 L 0,37.620964 H 11.924855 L 12.04061,36.61069 H 9.9327283 L 12.199257,19.860806 H 17.91622 L 15.649692,36.61069 h -1.992127 l -0.115239,1.010274 h 11.808583 l 0.115755,-1.010274 h -2.54093 l 1.015442,-7.769553 1.886708,-13.386264 2.121834,-14.4440819 h 2.54093 L 30.605887,0 h -11.8091 l -0.115239,1.0107911 h 1.992127 L 18.591114,15.454356 H 12.845728 L 14.632183,3.1641483 14.956711,1.0107911 h 2.107881 L 17.20877,0 Z" /></g></svg>
