<?xml version="1.0" encoding="UTF-8"?>
<svg width="1.151in" height=".15811in" version="1.1" viewBox="0 0 29.235 4.0161" xml:space="preserve" xmlns="http://www.w3.org/2000/svg"><path d="m0.90879 1.6225v1.5583h-0.90879v-3.1326h0.90879v1.2599h0.74126v-1.2599h0.90879v3.1326h-0.90879v-1.5583zm4.4843 1.4756q-0.30752 0.11934-0.59897 0.11934-0.43145 0-0.53242-0.26851-0.20884 0.27998-0.60127 0.27998-0.73208 0-0.73208-0.6793 0-0.51636 0.67012-0.7252 0.61504-0.19277 0.61504-0.46357 0-0.35571-0.35342-0.35571-0.4085 0-0.4085 0.34424 0 0.10786 0.064258 0.28457l-0.41538-0.080322q-0.016064-0.10786-0.016064-0.20195 0-0.55078 1.0052-0.55078 0.95469 0 0.95469 0.51406v1.4045q0 0.21572 0.13999 0.21572 0.043604 0 0.12852-0.048193zm-1.1865-1.3081q-0.078027 0.089502-0.1813 0.14917-0.25933 0.15146-0.25933 0.50947 0 0.45898 0.179 0.45898 0.26162 0 0.26162-0.45439zm3.284-0.92256-1.0603 2.6116q-0.21802 0.53701-0.5875 0.53701-0.35801 0-0.48652-0.30522l0.28916-0.20884q0.034424 0.26392 0.19507 0.26392 0.1813 0 0.29375-0.30522l0.061963-0.16523-0.93174-2.428h0.92026l0.46587 1.3609 0.53013-1.3609zm2.2513-0.86748v3.1808h-0.83765v-0.19966q-0.21113 0.25244-0.56455 0.25244-0.78027 0-0.78027-1.1979 0-1.2324 0.82617-1.2324 0.32588 0 0.51865 0.28687v-1.0419q0.37866 0 0.83765-0.048193zm-1.0855 1.1406q-0.21113 0-0.21113 0.38784l-0.016064 0.49111 0.00918 0.44751q0 0.42915 0.23867 0.42915 0.23179 0 0.23179-0.42227l0.011474-0.56455-0.018359-0.38555q-0.036719-0.38325-0.24556-0.38325zm3.1991 1.1934 0.33735 0.098682q-0.05278 0.80093-0.94551 0.80093-1.1566 0-1.1566-1.1543 0-0.55996 0.30752-0.91797 0.30752-0.35801 0.78716-0.35801 1.0029 0 1.0029 1.2943h-1.2209q0 0.90879 0.46128 0.90879 0.43144 0 0.43144-0.51406 0-0.068848-0.0046-0.15835zm-0.89043-0.4957h0.50029q0-0.80781-0.24326-0.80781-0.22031 0-0.24785 0.59897zm3.7683 1.3425h-0.83765v-1.6982q0-0.25933-0.14458-0.25933-0.14688 0-0.25474 0.20654-0.10786 0.20425-0.10786 0.48423v1.2668h-0.83765v-2.3179q0.43144 0 0.83765-0.057373v0.43374q0.31211-0.43145 0.76191-0.43145 0.58291 0 0.58291 0.59209zm4.1171-3.1326v0.3144h-0.7688v2.8182h-0.96387v-2.8182h-0.77339v-0.3144zm2.5313 3.05q-0.30752 0.11934-0.59898 0.11934-0.43144 0-0.53242-0.26851-0.20884 0.27998-0.60127 0.27998-0.73208 0-0.73208-0.6793 0-0.51636 0.67012-0.7252 0.61504-0.19277 0.61504-0.46357 0-0.35571-0.35342-0.35571-0.4085 0-0.4085 0.34424 0 0.10786 0.06426 0.28457l-0.41538-0.080322q-0.01607-0.10786-0.01607-0.20195 0-0.55078 1.0052-0.55078 0.95469 0 0.95469 0.51406v1.4045q0 0.21572 0.13999 0.21572 0.0436 0 0.12852-0.048193zm-1.1865-1.3081q-0.07803 0.089502-0.1813 0.14917-0.25933 0.15146-0.25933 0.50947 0 0.45898 0.179 0.45898 0.26162 0 0.26162-0.45439zm3.284-0.92256-1.0603 2.6116q-0.21802 0.53701-0.5875 0.53701-0.35801 0-0.48652-0.30522l0.28916-0.20884q0.03442 0.26392 0.19507 0.26392 0.1813 0 0.29375-0.30522l0.06196-0.16523-0.93174-2.428h0.92026l0.46587 1.3609 0.53013-1.3609zm1.0075-0.86519v3.1785h-0.83765v-3.1326q0.34653 0 0.83765-0.045898zm1.5009 0.80552q1.1475 0 1.1475 1.2117 0 1.2117-1.1475 1.2117-1.1498 0-1.1498-1.2117 0-1.2117 1.1498-1.2117zm-0.0023 0.20425q-0.27768 0-0.27768 1.0075 0 1.0075 0.27768 1.0075 0.27998 0 0.27998-1.0075 0-1.0075-0.27998-1.0075zm3.167 0.69536h-0.57373q0.02983-0.1354 0.05278-0.19966 0.03213-0.094092 0.03213-0.16982 0-0.14688-0.10557-0.14688-0.08032 0-0.15376 0.19507-0.07344 0.19277-0.07344 0.4085v1.3861h-0.83764v-2.3133l0.16294 0.002295q0.28916 0 0.67471-0.061963v0.38096q0.20425-0.38096 0.50029-0.38096 0.40391 0 0.40391 0.44521 0 0.11704-0.03901 0.26851-0.01377 0.061963-0.0436 0.18589z" fill="#252525" stroke-width=".381" aria-label="Hayden Taylor"/></svg>
