<?xml version="1.0" encoding="UTF-8"?>
<svg width="2.12in" height="2.12in" version="1.1" viewBox="0 0 53.848 53.848" xml:space="preserve" xmlns="http://www.w3.org/2000/svg"><g fill="#252525" stroke-linecap="round"><path d="m27.376 16.227h23.449l-1.357 9.9612h-1.0106l0.05774-1.0683c0-5.2549-1.7131-7.8823-5.1394-7.8823l-2.5119 17.8-2.512 17.8h2.7718l-0.11546 1.0106h-12.791l0.1732-1.0106h2.6274l5.0239-35.6c-3.5995 0.21173-6.1211 3.2145-7.5647 9.0084h-2.5152z" stroke-width="2.3368"/><path d="m8.2775-1.7e-6h11.953l-0.14442 1.0106h-2.1077l-2.1366 15.216h5.7457l2.1077-15.216h-1.9922l0.11546-1.0106h11.809l-0.11546 1.0106h-2.5408l-5.0239 35.6h2.5408l-0.11546 1.0106h-11.809l0.11546-1.0106h1.9922l2.714-19.345h-5.7168l-2.7141 19.345h2.1077l-0.11546 1.0106h-11.925l0.11549-1.0106h2.5408l5.0239-35.6h-2.5408z" stroke-width="2.3368"/></g></svg>
