<?xml version="1.0" encoding="UTF-8" standalone="no"?>
<!-- Created with Inkscape (http://www.inkscape.org/) -->

<svg
   width="2.1199999in"
   height="2.1199999in"
   viewBox="0 0 53.847998 53.847997"
   version="1.1"
   id="svg5"
   sodipodi:docname="coloredlogo.svg"
   xml:space="preserve"
   inkscape:version="1.2 (dc2aedaf03, 2022-05-15)"
   inkscape:export-filename="logo.png"
   inkscape:export-xdpi="1000"
   inkscape:export-ydpi="1000"
   xmlns:inkscape="http://www.inkscape.org/namespaces/inkscape"
   xmlns:sodipodi="http://sodipodi.sourceforge.net/DTD/sodipodi-0.dtd"
   xmlns="http://www.w3.org/2000/svg"
   xmlns:svg="http://www.w3.org/2000/svg"><sodipodi:namedview
     id="namedview7"
     pagecolor="#505050"
     bordercolor="#ffffff"
     borderopacity="1"
     inkscape:showpageshadow="0"
     inkscape:pageopacity="0"
     inkscape:pagecheckerboard="1"
     inkscape:deskcolor="#505050"
     inkscape:document-units="in"
     showgrid="false"
     showguides="true"
     inkscape:zoom="1.8839616"
     inkscape:cx="47.771674"
     inkscape:cy="112.26343"
     inkscape:window-width="1920"
     inkscape:window-height="1111"
     inkscape:window-x="-9"
     inkscape:window-y="-9"
     inkscape:window-maximized="1"
     inkscape:current-layer="layer1"><inkscape:grid
       type="xygrid"
       id="grid972"
       originx="0"
       originy="0" /></sodipodi:namedview><defs
     id="defs2" /><g
     inkscape:label="Layer 1"
     inkscape:groupmode="layer"
     id="layer1"><path
       d="m 27.376379,16.226581 h 23.44905 l -1.35703,9.961158 h -1.010557 l 0.05774,-1.0683 c 0,-5.254871 -1.713121,-7.882306 -5.139382,-7.882306 L 40.864262,35.03729 38.352305,52.837446 h 2.771812 l -0.115464,1.010551 H 28.217935 l 0.173203,-1.010551 h 2.627441 l 5.023896,-35.600313 c -3.599497,0.211734 -6.121069,3.214517 -7.564718,9.008352 h -2.515221 z"
       id="path17768"
       sodipodi:nodetypes="ccccccccccccccccc"
       style="font-style:italic;font-weight:bold;font-stretch:condensed;font-size:33.6965px;font-family:'Bodoni MT';-inkscape-font-specification:'Bodoni MT Bold Italic Condensed';fill:#d6a700;fill-opacity:1;stroke-width:2.32586;stroke-linecap:round" /><path
       d="M 8.2774721,-1.7e-6 H 20.230856 L 20.086435,1.0105508 H 17.978721 L 15.842123,16.226581 h 5.745712 L 23.695546,1.0105508 H 21.70332 L 21.818784,-1.7e-6 H 33.627813 L 33.512349,1.0105508 H 30.971525 L 25.947648,36.610863 h 2.540805 l -0.115464,1.010552 H 16.563978 l 0.115464,-1.010552 h 1.992227 l 2.71404,-19.344858 h -5.716826 l -2.714057,19.344858 h 2.107727 l -0.115464,1.010552 H 3.0225693 L 3.138062,36.610863 H 5.6788786 L 10.702793,1.0105508 H 8.1619765 Z"
       id="path17766"
       sodipodi:nodetypes="ccccccccccccccccccccccccccccc"
       style="font-style:italic;font-weight:bold;font-stretch:condensed;font-size:33.6965px;font-family:'Bodoni MT';-inkscape-font-specification:'Bodoni MT Bold Italic Condensed';fill:#153666;fill-opacity:1;stroke-width:2.32586;stroke-linecap:round" /></g></svg>
